<?xml version="1.0" encoding="UTF-8" standalone="no"?>
<svg
   xmlns:dc="http://purl.org/dc/elements/1.1/"
   xmlns:cc="http://creativecommons.org/ns#"
   xmlns:rdf="http://www.w3.org/1999/02/22-rdf-syntax-ns#"
   xmlns:svg="http://www.w3.org/2000/svg"
   xmlns="http://www.w3.org/2000/svg"
   height="40.005928"
   width="39.996849"
   id="svg4671"
   version="1.1"
   viewBox="0 0 39.99685 40.005928">
  <metadata
     id="metadata4675">
    <rdf:RDF>
      <cc:Work
         rdf:about="">
        <dc:format>image/svg+xml</dc:format>
        <dc:type
           rdf:resource="http://purl.org/dc/dcmitype/StillImage" />
        <dc:title></dc:title>
      </cc:Work>
    </rdf:RDF>
  </metadata>
  <defs
     id="defs4664">
    <style
       id="style4662">
      .cls-1 {
        fill: #55acee;
      }

      .cls-2 {
        fill: #3b5999;
      }

      .cls-3 {
        fill: #e4405f;
      }

      .cls-4 {
        fill: #4c75a3;
      }
    </style>
  </defs>
  <g
     transform="translate(-62.008546,0.0058952)"
     id="Социалки">
    <path
       style="fill:#55acee"
       transform="translate(174)"
       d="M 20,40 A 20.005,20.005 0 0 1 12.215,1.572 20.005,20.005 0 0 1 27.785,38.428 19.875,19.875 0 0 1 20,40 Z M 13,25.745 v 0 a 9.392,9.392 0 0 0 4.887,1.5 c 0.16,0 0.324,0 0.488,-0.014 a 9.385,9.385 0 0 0 6.641,-2.921 10.464,10.464 0 0 0 2.609,-7.023 C 28.24,16.799 28.875,16.295 29,15.671 a 7.227,7.227 0 0 1 -1.747,0.5 3.51,3.51 0 0 0 1.373,-1.863 c -0.161,0.064 -0.319,0.135 -0.487,0.21 A 5.852,5.852 0 0 1 26.5,15.054 2.871,2.871 0 0 0 24.19,14 a 3.758,3.758 0 0 0 -2.917,1.386 2.976,2.976 0 0 0 -0.522,2.652 9.594,9.594 0 0 1 -4.051,-1.18 11.619,11.619 0 0 1 -2.828,-2.3 3.451,3.451 0 0 0 -0.232,2.634 3.03,3.03 0 0 0 1.232,1.841 2.51,2.51 0 0 1 -1.372,-0.373 3.378,3.378 0 0 0 2.625,3.356 h -0.026 c -0.11,0 -0.23,0.011 -0.358,0.023 -0.159,0.015 -0.324,0.03 -0.5,0.03 a 2.035,2.035 0 0 1 -0.5,-0.055 3.369,3.369 0 0 0 3.125,2.362 A 6.733,6.733 0 0 1 13.756,25.8 5.027,5.027 0 0 1 13,25.745 Z"
       class="cls-1"
       data-name="Oval 2"
       id="Oval_2" />
    <path
       style="fill:#3b5999"
       transform="translate(118)"
       d="M 20,40 A 20.005,20.005 0 0 1 12.215,1.572 20.005,20.005 0 0 1 27.785,38.428 19.875,19.875 0 0 1 20,40 Z M 15,16.627 v 3.368 h 2.017 V 30 h 4.144 V 19.994 h 2.781 c 0,-0.01 0.261,-1.621 0.386,-3.379 h -3.151 v -2.3 a 0.986,0.986 0 0 1 0.9,-0.807 h 2.258 V 10 h -3.07 A 4.432,4.432 0 0 0 18,11.1 3.709,3.709 0 0 0 17.012,13.842 v 2.787 z"
       class="cls-2"
       data-name="Oval 2"
       id="Oval_2-2" />
    <path
       style="fill:#e4405f"
       transform="translate(62)"
       d="M 20,40 A 20.006,20.006 0 0 1 12.215,1.571 20.005395,20.005395 0 0 1 27.785,38.428 19.889,19.889 0 0 1 20,40 Z M 20,15 A 4.982,4.982 0 0 0 16.463,16.453 4.928,4.928 0 0 0 15,19.972 5,5 0 1 0 20,15 Z m 9,-4.524 a 2.485,2.485 0 0 0 -1.767,0.731 2.5,2.5 0 0 0 0,3.538 2.485,2.485 0 0 0 1.767,0.731 2.5,2.5 0 1 0 0,-5 z"
       class="cls-3"
       data-name="Oval 2"
       id="Oval_2-3" />
    <path
       style="fill:#4c75a3"
       d="m -30.084754,20.785779 a 20.005,20.005 0 0 1 -7.785,-38.428 20.005,20.005 0 0 1 15.57,36.856 19.875,19.875 0 0 1 -7.785,1.572 z m 2.516,-17.2050002 a 0.751,0.751 0 0 1 0.442,0.175 3.837,3.837 0 0 1 0.447,0.407 c 0.159,0.167 0.318,0.34 0.472,0.507 0.291,0.317 0.592,0.644 0.906,0.946 a 2.224,2.224 0 0 0 1.58,0.63 h 0.1 c 0.281,0.007 1.129,0.027 1.821,0.027 a 8.955,8.955 0 0 0 0.94,-0.03 0.872,0.872 0 0 0 0.715,-0.451 0.907,0.907 0 0 0 -0.125,-0.869 10.259,10.259 0 0 0 -1.076,-1.4 c -0.316,-0.346 -0.658,-0.679 -0.987,-1 -0.239,-0.233 -0.486,-0.474 -0.722,-0.718 a 0.731,0.731 0 0 1 -0.128,-1.04599997 3.37,3.37 0 0 1 0.222,-0.355 q 0.308,-0.419 0.618,-0.835 l 0.005,-0.007 c 0.437,-0.58800003 0.889,-1.20000003 1.32,-1.80600003 a 5.134,5.134 0 0 0 0.916,-1.816 0.47,0.47 0 0 0 -0.327,-0.608 1.817,1.817 0 0 0 -0.548,-0.075 h -3.1 c -0.55,0 -0.7,0.108 -0.907,0.625 a 13.6,13.6 0 0 1 -1.459,2.827 11.016,11.016 0 0 1 -1.1,1.37600003 0.521,0.521 0 0 1 -0.356,0.191 c -0.179,0 -0.316,-0.158 -0.376,-0.434 a 4.546,4.546 0 0 1 -0.093,-1.01300003 c 0.005,-0.513 0.023,-1.036 0.04,-1.542 0.011,-0.342 0.023,-0.7 0.031,-1.043 a 3.14,3.14 0 0 0 -0.047,-0.6 0.841,0.841 0 0 0 -0.669,-0.747 4.458,4.458 0 0 0 -0.917,-0.092 c -0.188,0 -0.376,-0.006 -0.564,-0.009 -0.284,-0.005 -0.576,-0.011 -0.863,-0.011 -0.31,0 -0.582,0.007 -0.831,0.02 a 1.476,1.476 0 0 0 -1.2,0.479 0.314,0.314 0 0 0 -0.082,0.291 0.224,0.224 0 0 0 0.186,0.128 1.024,1.024 0 0 1 0.95,1.083 c 0.043,0.79 0.061,1.306 0.046,2.1 a 4.886,4.886 0 0 1 -0.2,1.17400003 0.333,0.333 0 0 1 -0.308,0.259 0.463,0.463 0 0 1 -0.255,-0.091 2.1,2.1 0 0 1 -0.444,-0.407 15.257,15.257 0 0 1 -2.2,-3.84600003 1.014,1.014 0 0 0 -0.979,-0.707 c -0.039,0 -1.353,-0.029 -2.269,-0.029 a 6.281,6.281 0 0 0 -0.86,0.027 0.528,0.528 0 0 0 -0.247,0.681 c 0.022,0.085 0.9,1.956 0.955,2.065 a 28.572,28.572 0 0 0 3.047,5.006 8.755,8.755 0 0 0 2.751,2.4 7.236,7.236 0 0 0 3.5,0.8 c 0.208,0 0.426,-0.006 0.648,-0.018 a 0.779,0.779 0 0 0 0.815,-0.758 8.723,8.723 0 0 1 0.286,-1.466 0.534,0.534 0 0 1 0.48,-0.395 z"
       class="cls-4"
       data-name="Oval 2"
       id="Oval_2-4" />
  </g>
</svg>
