<svg xmlns="http://www.w3.org/2000/svg" viewBox="0 0 229.12 54.291">
  <defs>
    <style>
      .cls-1 {
        fill: #393435;
      }

      .cls-2 {
        fill: #f6931d;
      }

      .cls-3 {
        fill: #ed3b85;
      }

      .cls-4 {
        fill: #03bada;
      }

      .cls-5 {
        fill: #38b449;
      }
    </style>
  </defs>
  <g id="Логотип" transform="translate(0 -0.559)">
    <g id="Group" transform="translate(89.909 23)">
      <g id="Подстрочник" transform="translate(0.917 22.01)">
        <path id="Fill_13" data-name="Fill 13" class="cls-1" d="M3.178,6.872a3.062,3.062,0,0,1-2.356-.89A3.653,3.653,0,0,1,0,3.424,3.6,3.6,0,0,1,.824.879,3.1,3.1,0,0,1,3.187,0,3.054,3.054,0,0,1,5.541.886a3.647,3.647,0,0,1,.814,2.548,3.643,3.643,0,0,1-.822,2.548A3.062,3.062,0,0,1,3.178,6.872Zm.009-5.694a1.5,1.5,0,0,0-1.274.569,2.793,2.793,0,0,0-.429,1.688,2.8,2.8,0,0,0,.425,1.685,1.493,1.493,0,0,0,1.269.566c1.125,0,1.695-.757,1.695-2.251S4.305,1.177,3.187,1.177Z" transform="translate(0.791 0.813)"/>
        <path id="Fill_14" data-name="Fill 14" class="cls-1" d="M2.479,7.274A2.193,2.193,0,0,1,.655,6.436,3.681,3.681,0,0,1,0,4.124,4.5,4.5,0,0,1,.669,1.454,3.119,3.119,0,0,1,2.758.3C3.226.221,3.919.119,4.818,0l.159,1.215c-.372.042-1.02.132-2.105.292a2.3,2.3,0,0,0-.859.275,1.1,1.1,0,0,0-.422.52,2.866,2.866,0,0,0-.171.9h.068a1.626,1.626,0,0,1,.639-.574,1.877,1.877,0,0,1,.854-.2A1.893,1.893,0,0,1,4.451,3a2.387,2.387,0,0,1,.526,1.655,2.674,2.674,0,0,1-.664,1.93A2.444,2.444,0,0,1,2.479,7.274Zm.178-3.821a1.151,1.151,0,0,0-.491.114,1.744,1.744,0,0,0-.446.3,1.352,1.352,0,0,0-.3.372,2.777,2.777,0,0,0,.3,1.418.94.94,0,0,0,.845.491c.658,0,.991-.459.991-1.365C3.552,3.9,3.251,3.452,2.658,3.452Z" transform="translate(8.11 0.411)"/>
        <path id="Fill_15" data-name="Fill 15" class="cls-1" d="M0,0H1.525l.963,2.872a3.972,3.972,0,0,1,.169.886h.027a3.926,3.926,0,0,1,.2-.886L3.827,0H5.32L3.159,5.757a2.494,2.494,0,0,1-.847,1.2,2.139,2.139,0,0,1-1.286.4A3.211,3.211,0,0,1,.32,7.273v-1.1a2.366,2.366,0,0,0,.547.06A.99.99,0,0,0,1.514,6a1.469,1.469,0,0,0,.432-.682l.082-.252Z" transform="translate(13.507 2.489)"/>
        <path id="Fill_16" data-name="Fill 16" class="cls-1" d="M1.392,0V1.868q0,.667.617.667a2.908,2.908,0,0,0,.747-.091,5.479,5.479,0,0,0,.7-.238V0H4.844V5.1H3.452V3.077a4.083,4.083,0,0,1-.9.361,3.252,3.252,0,0,1-.8.105A1.821,1.821,0,0,1,.456,3.116,1.585,1.585,0,0,1,0,1.9V0Z" transform="translate(19.388 2.489)"/>
        <path id="Fill_17" data-name="Fill 17" class="cls-1" d="M2.621,5.292a2.649,2.649,0,0,1-1.927-.68A2.588,2.588,0,0,1,0,2.685,2.845,2.845,0,0,1,.642.7,2.294,2.294,0,0,1,2.416,0,2.261,2.261,0,0,1,4.1.617a2.341,2.341,0,0,1,.6,1.7V3H1.411a1.344,1.344,0,0,0,.351.927,1.244,1.244,0,0,0,.922.333,3.845,3.845,0,0,0,.872-.1,4.364,4.364,0,0,0,.859-.306V4.931a3.291,3.291,0,0,1-.78.272A4.962,4.962,0,0,1,2.621,5.292Zm-.2-4.3a.887.887,0,0,0-.694.281,1.3,1.3,0,0,0-.287.8H3.4a1.166,1.166,0,0,0-.27-.8A.916.916,0,0,0,2.425.991Z" transform="translate(25.379 2.393)"/>
        <path id="Fill_18" data-name="Fill 18" class="cls-1" d="M1.392,0V1.963H3.338V0H4.73V5.1H3.338V3H1.392V5.1H0V0Z" transform="translate(31.214 2.489)"/>
        <path id="Fill_19" data-name="Fill 19" class="cls-1" d="M1.347,0V2.018q0,.32-.105,1.562L3.6,0H5.274V5.1H3.927V3.068q0-.544.091-1.534L1.671,5.1H0V0Z" transform="translate(37.405 2.489)"/>
        <path id="Fill_20" data-name="Fill 20" class="cls-1" d="M2.621,5.292a2.649,2.649,0,0,1-1.927-.68A2.588,2.588,0,0,1,0,2.685,2.845,2.845,0,0,1,.642.7,2.294,2.294,0,0,1,2.416,0,2.261,2.261,0,0,1,4.1.617a2.341,2.341,0,0,1,.6,1.7V3H1.411a1.344,1.344,0,0,0,.351.927,1.244,1.244,0,0,0,.922.333,3.845,3.845,0,0,0,.872-.1,4.364,4.364,0,0,0,.859-.306V4.931a3.291,3.291,0,0,1-.78.272A4.962,4.962,0,0,1,2.621,5.292Zm-.2-4.3a.887.887,0,0,0-.694.281,1.3,1.3,0,0,0-.287.8H3.4a1.166,1.166,0,0,0-.27-.8A.916.916,0,0,0,2.425.991Z" transform="translate(43.83 2.393)"/>
        <path id="Fill_21" data-name="Fill 21" class="cls-1" d="M1.347,0V2.018q0,.32-.105,1.562L3.6,0H5.274V5.1H3.927V3.068q0-.544.091-1.534L1.671,5.1H0V0Z" transform="translate(52.094 2.489)"/>
        <path id="Fill_22" data-name="Fill 22" class="cls-1" d="M1.392,7.448H0V.1H1.132l.2.662h.064A1.617,1.617,0,0,1,2.839,0,1.663,1.663,0,0,1,4.255.7,3.248,3.248,0,0,1,4.766,2.64a3.861,3.861,0,0,1-.239,1.419,2.01,2.01,0,0,1-.682.918A1.759,1.759,0,0,1,2.8,5.292a1.7,1.7,0,0,1-1.411-.653H1.319c.05.44.073.675.073.74V7.447Zm1-6.333a.882.882,0,0,0-.753.318,1.825,1.825,0,0,0-.247,1.047V2.63a2.154,2.154,0,0,0,.245,1.178.873.873,0,0,0,.774.356c.621,0,.936-.519.936-1.543a2.212,2.212,0,0,0-.231-1.13A.788.788,0,0,0,2.392,1.114Z" transform="translate(61.258 2.393)"/>
        <path id="Fill_23" data-name="Fill 23" class="cls-1" d="M1.58,5.3a1.574,1.574,0,0,1-1.157-.42A1.622,1.622,0,0,1,0,3.685a1.353,1.353,0,0,1,.569-1.2,3.321,3.321,0,0,1,1.715-.427l.886-.028V1.808a.7.7,0,0,0-.795-.777A3.652,3.652,0,0,0,.936,1.4L.474.462A4.172,4.172,0,0,1,2.429,0,2.444,2.444,0,0,1,4,.447a1.662,1.662,0,0,1,.548,1.361v3.4H3.58l-.27-.694H3.273a2.048,2.048,0,0,1-.723.614A2.338,2.338,0,0,1,1.58,5.3ZM3.169,2.845l-.539.018a1.737,1.737,0,0,0-.9.219.691.691,0,0,0-.3.612c0,.391.227.589.676.589A1.074,1.074,0,0,0,2.879,4a.981.981,0,0,0,.29-.74Z" transform="translate(66.837 2.384)"/>
        <path id="Fill_24" data-name="Fill 24" class="cls-1" d="M1.643,2.059a3.434,3.434,0,0,0,1.121-.128A.432.432,0,0,0,3.1,1.525a.4.4,0,0,0-.242-.37,1.885,1.885,0,0,0-.8-.123,4.188,4.188,0,0,0-.8.087,4.217,4.217,0,0,0-.81.238L.036.384A5.786,5.786,0,0,1,1.091.089,6.693,6.693,0,0,1,2.233,0,2.821,2.821,0,0,1,3.762.366a1.122,1.122,0,0,1,.575.991q0,.862-1.018,1.123v.046a1.8,1.8,0,0,1,.892.441,1.047,1.047,0,0,1,.267.747,1.254,1.254,0,0,1-.3.826,1.915,1.915,0,0,1-.872.557,4.136,4.136,0,0,1-1.343.2A4.848,4.848,0,0,1,0,4.977V3.827a4.214,4.214,0,0,0,.861.287,4.108,4.108,0,0,0,.906.105,2.581,2.581,0,0,0,1.018-.153.479.479,0,0,0,.338-.436.488.488,0,0,0-.356-.459,3.038,3.038,0,0,0-1.1-.148H1.132V2.059Z" transform="translate(72.449 2.393)"/>
        <path id="Fill_25" data-name="Fill 25" class="cls-1" d="M2.616,5.1H0V0H2.616A2.936,2.936,0,0,1,4.189.34a1.12,1.12,0,0,1,.522,1,1.022,1.022,0,0,1-.257.7,1.254,1.254,0,0,1-.76.373v.036a1.452,1.452,0,0,1,.861.373,1.025,1.025,0,0,1,.318.76,1.284,1.284,0,0,1-.585,1.134A3.017,3.017,0,0,1,2.616,5.1ZM1.392,2.936V4.141H2.525A1.145,1.145,0,0,0,3.2,3.974a.544.544,0,0,0,.23-.468A.466.466,0,0,0,3.2,3.071a1.425,1.425,0,0,0-.7-.135Zm0-1.954V1.991H2.4a1.409,1.409,0,0,0,.671-.128A.443.443,0,0,0,3.3,1.447c0-.309-.249-.465-.74-.465Z" transform="translate(78.015 2.489)"/>
        <path id="Fill_26" data-name="Fill 26" class="cls-1" d="M1.347,0V2.018q0,.32-.105,1.562L3.6,0H5.274V5.1H3.927V3.068q0-.544.091-1.534L1.671,5.1H0V0Z" transform="translate(83.991 2.489)"/>
        <path id="Fill_27" data-name="Fill 27" class="cls-1" d="M4.74,0V1.046H3.069V5.1H1.676V1.046H0V0Z" transform="translate(90.21 2.489)"/>
        <path id="Fill_28" data-name="Fill 28" class="cls-1" d="M1.347,0V2.018q0,.32-.105,1.562L3.6,0H5.274V5.1H3.927V3.068q0-.544.091-1.534L1.671,5.1H0V0Z" transform="translate(95.899 2.489)"/>
        <path id="Fill_29" data-name="Fill 29" class="cls-1" d="M2.621,5.292a2.649,2.649,0,0,1-1.927-.68A2.588,2.588,0,0,1,0,2.685,2.845,2.845,0,0,1,.642.7,2.294,2.294,0,0,1,2.416,0,2.261,2.261,0,0,1,4.1.617a2.341,2.341,0,0,1,.6,1.7V3H1.411a1.344,1.344,0,0,0,.351.927,1.244,1.244,0,0,0,.922.333,3.845,3.845,0,0,0,.872-.1,4.364,4.364,0,0,0,.859-.306V4.931a3.291,3.291,0,0,1-.78.272A4.962,4.962,0,0,1,2.621,5.292Zm-.2-4.3a.887.887,0,0,0-.694.281,1.3,1.3,0,0,0-.287.8H3.4a1.166,1.166,0,0,0-.27-.8A.916.916,0,0,0,2.425.991Z" transform="translate(102.324 2.393)"/>
        <path id="Fill_30" data-name="Fill 30" class="cls-1" d="M1.251,6.936H0V4.087H.429A6.482,6.482,0,0,0,1.165,2.37,12.821,12.821,0,0,0,1.58,0H5.187V4.087h.749V6.934H4.685V5.1H1.251V6.935Zm1.5-5.891h0a13.562,13.562,0,0,1-.313,1.612,6.685,6.685,0,0,1-.55,1.429H3.794V1.046H2.749Z" transform="translate(109.99 2.489)"/>
        <path id="Fill_31" data-name="Fill 31" class="cls-1" d="M2.621,5.292a2.649,2.649,0,0,1-1.927-.68A2.588,2.588,0,0,1,0,2.685,2.845,2.845,0,0,1,.642.7,2.294,2.294,0,0,1,2.416,0,2.261,2.261,0,0,1,4.1.617a2.341,2.341,0,0,1,.6,1.7V3H1.411a1.344,1.344,0,0,0,.351.927,1.244,1.244,0,0,0,.922.333,3.845,3.845,0,0,0,.872-.1,4.364,4.364,0,0,0,.859-.306V4.931a3.291,3.291,0,0,1-.78.272A4.962,4.962,0,0,1,2.621,5.292Zm-.2-4.3a.887.887,0,0,0-.694.281,1.3,1.3,0,0,0-.287.8H3.4a1.166,1.166,0,0,0-.27-.8A.916.916,0,0,0,2.425.991Z" transform="translate(116.487 2.393)"/>
        <path id="Fill_32" data-name="Fill 32" class="cls-1" d="M4.74,0V1.046H3.069V5.1H1.676V1.046H0V0Z" transform="translate(121.806 2.489)"/>
        <path id="Fill_33" data-name="Fill 33" class="cls-1" d="M2.621,5.292a2.649,2.649,0,0,1-1.927-.68A2.588,2.588,0,0,1,0,2.685,2.845,2.845,0,0,1,.642.7,2.294,2.294,0,0,1,2.416,0,2.261,2.261,0,0,1,4.1.617a2.341,2.341,0,0,1,.6,1.7V3H1.411a1.344,1.344,0,0,0,.351.927,1.244,1.244,0,0,0,.922.333,3.845,3.845,0,0,0,.872-.1,4.364,4.364,0,0,0,.859-.306V4.931a3.291,3.291,0,0,1-.78.272A4.962,4.962,0,0,1,2.621,5.292Zm-.2-4.3a.887.887,0,0,0-.694.281,1.3,1.3,0,0,0-.287.8H3.4a1.166,1.166,0,0,0-.27-.8A.916.916,0,0,0,2.425.991Z" transform="translate(127.185 2.393)"/>
        <path id="Fill_34" data-name="Fill 34" class="cls-1" d="M1.67,7.3H0V2.2H1.347V4.215c0,.211-.035.736-.105,1.562L3.6,2.2H5.274V7.3H3.927V5.265c0-.367.031-.883.091-1.535L1.67,7.3Zm.942-5.667a2.755,2.755,0,0,1-1.6-.374A1.606,1.606,0,0,1,.429,0H1.676a.978.978,0,0,0,.235.66,1.073,1.073,0,0,0,.728.19A.993.993,0,0,0,3.326.642,1,1,0,0,0,3.6,0h1.26a1.637,1.637,0,0,1-.643,1.244A2.8,2.8,0,0,1,2.612,1.634Z" transform="translate(133.02 0.293)"/>
      </g>
      <g id="Название">
        <path id="Fill_2" data-name="Fill 2" class="cls-1" d="M8.372,17.719a8.2,8.2,0,0,1-6.211-2.272C.727,13.94,0,11.714,0,8.831c0-2.852.723-5.06,2.148-6.565A8.241,8.241,0,0,1,8.4,0c2.727,0,4.822.756,6.228,2.248s2.12,3.716,2.12,6.606-.717,5.106-2.131,6.605A8.2,8.2,0,0,1,8.372,17.719ZM8.4,3.815a2.993,2.993,0,0,0-2.623,1.26A6.685,6.685,0,0,0,4.9,8.854,6.607,6.607,0,0,0,5.766,12.6a2.976,2.976,0,0,0,2.605,1.248,3,3,0,0,0,2.619-1.212,6.667,6.667,0,0,0,.854-3.779,6.716,6.716,0,0,0-.866-3.809A2.964,2.964,0,0,0,8.4,3.815Z" transform="translate(15.666 0.059)"/>
        <path id="Fill_4" data-name="Fill 4" class="cls-1" d="M6.7,17.213H0V0H6a10.263,10.263,0,0,1,5.21,1.042,3.545,3.545,0,0,1,1.7,3.244,4.118,4.118,0,0,1-.742,2.472,3.324,3.324,0,0,1-1.955,1.319v.118a4.024,4.024,0,0,1,2.319,1.413,4.281,4.281,0,0,1,.719,2.567,4.418,4.418,0,0,1-1.76,3.692A7.747,7.747,0,0,1,6.7,17.213ZM4.651,10.008v3.614H6.286c1.446,0,2.179-.618,2.179-1.836a1.587,1.587,0,0,0-.582-1.319,2.7,2.7,0,0,0-1.69-.459Zm0-6.488V6.605h1.4A2.543,2.543,0,0,0,7.6,6.193a1.442,1.442,0,0,0,.548-1.225c0-.961-.737-1.448-2.19-1.448Z" transform="translate(35.517 0.33)"/>
        <path id="Fill_6" data-name="Fill 6" class="cls-1" d="M0,17.214H4.674V0H0Z" transform="translate(51.765 0.329)"/>
        <path id="Fill_8" data-name="Fill 8" class="cls-1" d="M16.39,17.214h-6.1L4,5.087H3.9q.223,2.861.224,4.368v7.759H0V0H6.076L12.34,11.963h.07q-.164-2.6-.165-4.18V0H16.39Z" transform="translate(60.16 0.329)"/>
        <path id="Fill_9" data-name="Fill 9" class="cls-1" d="M8.372,17.719a8.2,8.2,0,0,1-6.211-2.272C.727,13.94,0,11.714,0,8.831c0-2.852.723-5.06,2.148-6.565A8.241,8.241,0,0,1,8.4,0c2.727,0,4.822.756,6.228,2.248s2.12,3.716,2.12,6.606-.717,5.106-2.131,6.605A8.2,8.2,0,0,1,8.372,17.719ZM8.4,3.815a2.993,2.993,0,0,0-2.623,1.26A6.685,6.685,0,0,0,4.9,8.854,6.607,6.607,0,0,0,5.766,12.6a2.976,2.976,0,0,0,2.605,1.248,3,3,0,0,0,2.619-1.212,6.667,6.667,0,0,0,.854-3.779,6.716,6.716,0,0,0-.866-3.809A2.964,2.964,0,0,0,8.4,3.815Z" transform="translate(79.634 0.059)"/>
        <path id="Fill_10" data-name="Fill 10" class="cls-1" d="M0,2.261A2.154,2.154,0,0,1,.641.589,2.668,2.668,0,0,1,2.508,0,2.509,2.509,0,0,1,4.3.589a2.187,2.187,0,0,1,.624,1.672,2.143,2.143,0,0,1-.642,1.654,2.506,2.506,0,0,1-1.772.594A2.692,2.692,0,0,1,.671,3.921,2.092,2.092,0,0,1,0,2.261" transform="translate(98.638 13.328)"/>
        <path id="Fill_11" data-name="Fill 11" class="cls-1" d="M4.651,17.215H0V0H5.64A9,9,0,0,1,10.9,1.272a4.423,4.423,0,0,1,1.755,3.815,5.1,5.1,0,0,1-2.92,4.627l5.015,7.5-5.274,0L5.828,10.95H4.651v6.264Zm0-13.694V7.454h.871C7.14,7.454,7.96,6.729,7.96,5.3c0-1.179-.8-1.778-2.39-1.778Z" transform="translate(106.456 0.329)"/>
        <path id="Fill_12" data-name="Fill 12" class="cls-1" d="M14.73,0V10.361A6.954,6.954,0,0,1,12.817,15.6,7.612,7.612,0,0,1,7.3,17.449a7.536,7.536,0,0,1-5.41-1.8A6.82,6.82,0,0,1,0,10.467V0H4.675V10.1a4.137,4.137,0,0,0,.683,2.649,2.464,2.464,0,0,0,2.013.824,2.466,2.466,0,0,0,2.067-.818,4.385,4.385,0,0,0,.641-2.679V0Z" transform="translate(122.68 0.329)"/>
        <path id="Fill_1" data-name="Fill 1" class="cls-1" d="M8.854,17.214H4.2V3.8H0V0H13.046V3.8H8.854Z" transform="translate(0.795 0.329)"/>
      </g>
    </g>
    <g id="Фирменный_знак" data-name="Фирменный знак">
      <path id="Fill_35" data-name="Fill 35" class="cls-2" d="M17.14,12.314,27.694,1.76A36.211,36.211,0,0,1,3.9,0L0,3.9c4.841,3.3,11.4,5.665,17.14,8.412" transform="translate(7.054 15.649)"/>
      <path id="Fill_36" data-name="Fill 36" class="cls-3" d="M27.79.026A29.012,29.012,0,0,0,15.167,3.612a24.691,24.691,0,0,1-4,1.7L0,16.475c1.1.537,2.167,1.09,3.182,1.669,5.576,3.181,8.978,6.807,12.174,10.144L39.761,3.882C36.563,1.662,32.705-.245,27.79.026" transform="translate(24.727 11.745)"/>
      <path id="Fill_37" data-name="Fill 37" class="cls-4" d="M25.674,35.02h0c-6.918,0-12.128-.99-16.4-3.114-3.8-1.89-6.449-4.481-9.276-7.425L24.482,0c1.055.756,2.024,1.527,2.962,2.272,2.4,1.91,4.476,3.559,6.386,3.559.1,0,.191,0,.285-.012,0-1.449-.73-1.724-1.575-2.042-1.052-.4-2.244-.845-2.4-3.674A7.29,7.29,0,0,1,34.56,2.164a5.031,5.031,0,0,0,3.261,1.561c.093,0,.189,0,.285-.01.739.3,7.33,4.161,7.33,4.47,0,2.605-1.933,2.957-3.823,2.957-1.043,0-2.205-.116-3.436-.238-1.331-.133-2.708-.27-4.043-.27-3.185,0-5.257.838-6.522,2.637a15.5,15.5,0,0,0-2.618-4.884A7.929,7.929,0,0,0,20.9,5.86a12.749,12.749,0,0,1,4.357,6.34,10.028,10.028,0,0,1,.105,6c-.52,1.5-1.477,2.361-2.628,2.362a3.8,3.8,0,0,1-2.341-1.006c.083-.923,1.185-1.11,2.071-1.26.209-.035.407-.069.581-.11a7.869,7.869,0,0,0-1.876-5.523,5.725,5.725,0,0,0-4.219-1.78c-3.158,0-6.595,2.4-7.052,6.976a10.872,10.872,0,0,0,2.669,8c2.449,2.949,7.63,6.657,18.4,7.574,0,.051.017.131.033.231.057.37.152.988.024,1.147a.1.1,0,0,1-.07.038C29.1,34.961,27.325,35.02,25.674,35.02ZM38.808,5.265a.769.769,0,1,0,.769.769A.77.77,0,0,0,38.808,5.265Z" transform="translate(40.47 15.955)"/>
      <path id="Fill_38" data-name="Fill 38" class="cls-5" d="M6.588,18.666l3.831-3.831C4.265,11.8.311,6.719,1.776,0-2.169,9.168.908,14.625,6.588,18.666" transform="translate(0 0.559)"/>
    </g>
  </g>
</svg>
