<svg xmlns="http://www.w3.org/2000/svg" viewBox="0 0 16 16">
  <defs>
    <style>
      .cls-1 {
        fill: none;
      }

      .cls-2 {
        fill: #bfc2c9;
      }
    </style>
  </defs>
  <g id="Телефон" transform="translate(-344 -376)">
    <rect id="Поле" class="cls-1" width="16" height="16" transform="translate(344 376)"/>
    <path id="Иконка" class="cls-2" d="M10.1,53.645a.93.93,0,0,0-1.406,0c-.329.326-.657.652-.981.983a.194.194,0,0,1-.271.05c-.213-.116-.439-.21-.644-.337A10.2,10.2,0,0,1,4.338,52.1a5.824,5.824,0,0,1-.881-1.412.2.2,0,0,1,.05-.26c.329-.318.649-.644.972-.97a.934.934,0,0,0,0-1.439c-.257-.26-.514-.514-.771-.773s-.528-.533-.8-.8a.936.936,0,0,0-1.406,0c-.331.326-.649.66-.986.981a1.6,1.6,0,0,0-.5,1.08,4.576,4.576,0,0,0,.354,1.97,11.968,11.968,0,0,0,2.124,3.539,13.145,13.145,0,0,0,4.353,3.406,6.3,6.3,0,0,0,2.412.7,1.767,1.767,0,0,0,1.517-.577c.282-.315.6-.6.9-.9a.94.94,0,0,0,.006-1.431Q10.891,54.43,10.1,53.645Z" transform="translate(345.994 331.863)"/>
  </g>
</svg>
